<svg width="17" height="13" viewBox="0 0 17 13" fill="none" xmlns="http://www.w3.org/2000/svg">
<path d="M16.1495 1.90735e-06L0.849056 1.90735e-06C0.694147 0.000497818 0.542303 0.044137 0.40987 0.126221C0.277435 0.208305 0.169426 0.325726 0.0974693 0.465844C0.0255108 0.605964 -0.00767136 0.763475 0.00149536 0.921424C0.0106602 1.07937 0.0618267 1.23178 0.149487 1.36223L7.7997 12.649C8.11676 13.117 8.88008 13.117 9.19799 12.649L16.8482 1.36223C16.9368 1.23205 16.9887 1.07957 16.9984 0.921355C17.008 0.763144 16.975 0.605253 16.903 0.464838C16.831 0.324422 16.7227 0.206851 16.5898 0.1249C16.457 0.0429487 16.3047 -0.000247955 16.1495 1.90735e-06Z" fill="#6DA000"/>
</svg>
