<?xml version="1.0" encoding="UTF-8"?>
<svg xmlns="http://www.w3.org/2000/svg" xmlns:xlink="http://www.w3.org/1999/xlink" width="60px" height="27px" viewBox="0 0 60 27" version="1.1">
<g id="surface1">
<path style=" stroke:none;fill-rule:nonzero;fill:rgb(100%,100%,100%);fill-opacity:1;" d="M 14.292969 26.675781 C 12.261719 26.675781 10.375 26.351562 8.632812 25.703125 C 6.914062 25.054688 5.421875 24.144531 4.15625 22.96875 C 2.890625 21.769531 1.898438 20.363281 1.183594 18.757812 C 0.488281 17.148438 0.144531 15.394531 0.144531 13.5 C 0.144531 11.578125 0.488281 9.828125 1.183594 8.242188 C 1.898438 6.636719 2.890625 5.242188 4.15625 4.066406 C 5.421875 2.867188 6.914062 1.945312 8.632812 1.296875 C 10.375 0.648438 12.261719 0.324219 14.292969 0.324219 C 16.347656 0.324219 18.234375 0.648438 19.953125 1.296875 C 21.671875 1.945312 23.164062 2.867188 24.429688 4.066406 C 25.695312 5.242188 26.675781 6.636719 27.367188 8.242188 C 28.082031 9.828125 28.441406 11.578125 28.441406 13.5 C 28.441406 15.394531 28.082031 17.148438 27.367188 18.757812 C 26.675781 20.363281 25.695312 21.769531 24.429688 22.96875 C 23.164062 24.144531 21.671875 25.054688 19.953125 25.703125 C 18.234375 26.351562 16.347656 26.675781 14.292969 26.675781 Z M 14.292969 19.800781 C 15.082031 19.800781 15.808594 19.65625 16.476562 19.367188 C 17.171875 19.078125 17.765625 18.671875 18.269531 18.144531 C 18.792969 17.59375 19.199219 16.933594 19.488281 16.164062 C 19.773438 15.371094 19.917969 14.484375 19.917969 13.5 C 19.917969 12.515625 19.773438 11.640625 19.488281 10.871094 C 19.199219 10.078125 18.792969 9.421875 18.269531 8.890625 C 17.765625 8.339844 17.171875 7.921875 16.476562 7.632812 C 15.808594 7.34375 15.082031 7.199219 14.292969 7.199219 C 13.503906 7.199219 12.765625 7.34375 12.070312 7.632812 C 11.402344 7.921875 10.804688 8.339844 10.28125 8.890625 C 9.777344 9.421875 9.386719 10.078125 9.097656 10.871094 C 8.8125 11.640625 8.667969 12.515625 8.667969 13.5 C 8.667969 14.484375 8.8125 15.371094 9.097656 16.164062 C 9.386719 16.933594 9.777344 17.59375 10.28125 18.144531 C 10.804688 18.671875 11.402344 19.078125 12.070312 19.367188 C 12.765625 19.65625 13.503906 19.800781 14.292969 19.800781 Z M 25.511719 26.101562 L 17.488281 0.898438 L 26.195312 0.898438 L 32.675781 22.175781 L 28.308594 22.175781 L 35.183594 0.898438 L 42.957031 0.898438 L 49.371094 22.175781 L 45.179688 22.175781 L 51.949219 0.898438 L 59.972656 0.898438 L 51.949219 26.101562 L 42.886719 26.101562 L 37.65625 8.675781 L 40.09375 8.675781 L 34.574219 26.101562 Z M 25.511719 26.101562 "/>
</g>
</svg>
